:version 1.10
:name ASF
:units
  mass 1
  length 1
  angle deg
:documentation
  ASF file generated by Kaydara
:root
  axis xyz
  order  tx ty tz rx ry rz
  position 0 0 0
  orientation 0 0 0
:bonedata
  begin
    id 1
    name lfemurDummy
    direction 0.61522 -0.761478 0.204097
    length 5.68318
    axis 0 -0 0 xyz
  end
  begin
    id 2
    name lfemur
    direction 0.34202 -0.939693 -5.84747e-008
    length 16.9147
    axis 0 -0 20 xyz
    dof rx ry rz
    limits( -inf , inf )
( -inf , inf )
( -inf , inf )

  end
  begin
    id 3
    name ltibia
    direction 0.34202 -0.939693 1.20839e-009
    length 18.0532
    axis 0 -0 20 xyz
    dof rz ry rx
    limits( -inf , inf )
( -inf , inf )
( -inf , inf )

  end
  begin
    id 4
    name lfoot
    direction 0.0841971 -0.23133 0.969225
    length 5.23822
    axis -90 7.62852e-016 20 xyz
    dof ry rx rz
    limits( -inf , inf )
( -inf , inf )
( -inf , inf )

  end
  begin
    id 5
    name ltoes
    direction 0 0 0
    length 0
    axis 0 0 0 xyz
    dof rz ry rx
    limits( -inf , inf )
( -inf , inf )
( -inf , inf )

  end
  begin
    id 6
    name rfemurDummy
    direction -0.625247 -0.75382 0.202044
    length 5.74091
    axis 0 -0 0 xyz
  end
  begin
    id 7
    name rfemur
    direction -0.34202 -0.939693 -1.47013e-008
    length 16.4922
    axis 0 -0 -20 xyz
    dof rx ry rz
    limits( -inf , inf )
( -inf , inf )
( -inf , inf )

  end
  begin
    id 8
    name rtibia
    direction -0.34202 -0.939693 -7.74345e-010
    length 18.2421
    axis 0 -0 -20 xyz
    dof rz ry rx
    limits( -inf , inf )
( -inf , inf )
( -inf , inf )

  end
  begin
    id 9
    name rfoot
    direction -0.124331 -0.341598 0.931586
    length 5.45787
    axis -90 -7.62852e-016 -20 xyz
    dof ry rx rz
    limits( -inf , inf )
( -inf , inf )
( -inf , inf )

  end
  begin
    id 10
    name rtoes
    direction 0 0 0
    length 0
    axis 0 0 0 xyz
    dof rz ry rx
    limits( -inf , inf )
( -inf , inf )
( -inf , inf )

  end
  begin
    id 11
    name lowerbackDummy
    direction 0 0 0
    length 0
    axis 0 -0 0 xyz
  end
  begin
    id 12
    name lowerback
    direction -0.0218484 0.994884 -0.0986304
    length 4.45607
    axis 0 -0 0 xyz
    dof rx ry rz
    limits( -inf , inf )
( -inf , inf )
( -inf , inf )

  end
  begin
    id 13
    name upperback
    direction -0.00973057 0.999717 -0.0217111
    length 4.47449
    axis 0 -0 0 xyz
    dof rx ry rz
    limits( -inf , inf )
( -inf , inf )
( -inf , inf )

  end
  begin
    id 14
    name thorax
    direction -0.000928171 0.999699 0.0245198
    length 4.50973
    axis 0 -0 0 xyz
    dof rx ry rz
    limits( -inf , inf )
( -inf , inf )
( -inf , inf )

  end
  begin
    id 15
    name rclavicle
    direction -0.9009 0.425937 -0.0834055
    length 7.28587
    axis 0 -0 0 xyz
    dof rx ry rz
    limits( -inf , inf )
( -inf , inf )
( -inf , inf )

  end
  begin
    id 16
    name rhumerus
    direction -1 -2.23604e-007 -1.42637e-007
    length 13.5704
    axis 180 30 90 xyz
    dof rx ry rz
    limits( -inf , inf )
( -inf , inf )
( -inf , inf )

  end
  begin
    id 17
    name rradius
    direction -1 5.68281e-008 -4.4952e-007
    length 8.06782
    axis 180 30 90 xyz
    dof rz ry rx
    limits( -inf , inf )
( -inf , inf )
( -inf , inf )

  end
  begin
    id 18
    name rwrist
    direction -1 1.51393e-007 1.38143e-007
    length 4.03391
    axis -90 -90 0 xyz
    dof rz rx ry
    limits( -inf , inf )
( -inf , inf )
( -inf , inf )

  end
  begin
    id 19
    name rthumb
    direction 0 0 0
    length 0
    axis 0 0 0 xyz
    dof ry rx rz
    limits( -inf , inf )
( -inf , inf )
( -inf , inf )

  end
  begin
    id 20
    name rhand
    direction -1 -3.34077e-007 -5.59631e-007
    length 1.29744
    axis -90 -90 0 xyz
    dof ry rx rz
    limits( -inf , inf )
( -inf , inf )
( -inf , inf )

  end
  begin
    id 21
    name rfingers
    direction 0 0 0
    length 0
    axis 0 0 0 xyz
    dof rz ry rx
    limits( -inf , inf )
( -inf , inf )
( -inf , inf )

  end
  begin
    id 22
    name lclavicle
    direction 0.940017 0.332249 -0.0773232
    length 8.29589
    axis 0 -0 0 xyz
    dof rx ry rz
    limits( -inf , inf )
( -inf , inf )
( -inf , inf )

  end
  begin
    id 23
    name lhumerus
    direction 1 7.41158e-008 -1.44768e-008
    length 12.0042
    axis 180 -30 -90 xyz
    dof rx ry rz
    limits( -inf , inf )
( -inf , inf )
( -inf , inf )

  end
  begin
    id 24
    name lradius
    direction 1 -1.32972e-007 3.10821e-007
    length 8.1902
    axis 180 -30 -90 xyz
    dof rz ry rx
    limits( -inf , inf )
( -inf , inf )
( -inf , inf )

  end
  begin
    id 25
    name lwrist
    direction 1 3.08957e-007 4.01394e-007
    length 4.09509
    axis -90 90 0 xyz
    dof rz rx ry
    limits( -inf , inf )
( -inf , inf )
( -inf , inf )

  end
  begin
    id 26
    name lthumb
    direction 0 0 0
    length 0
    axis 0 0 0 xyz
    dof ry rx rz
    limits( -inf , inf )
( -inf , inf )
( -inf , inf )

  end
  begin
    id 27
    name lhand
    direction 1 -1.64125e-007 -6.99514e-007
    length 1.37229
    axis -90 90 0 xyz
    dof ry rx rz
    limits( -inf , inf )
( -inf , inf )
( -inf , inf )

  end
  begin
    id 28
    name lfingers
    direction 0 0 0
    length 0
    axis 0 0 0 xyz
    dof rz ry rx
    limits( -inf , inf )
( -inf , inf )
( -inf , inf )

  end
  begin
    id 29
    name lowerneck
    direction -0.030798 0.998024 0.0547665
    length 3.93918
    axis 0 -0 0 xyz
    dof rx ry rz
    limits( -inf , inf )
( -inf , inf )
( -inf , inf )

  end
  begin
    id 30
    name upperneck
    direction 0.0531588 0.996611 -0.0627736
    length 3.95491
    axis 0 -0 0 xyz
    dof rx ry rz
    limits( -inf , inf )
( -inf , inf )
( -inf , inf )

  end
  begin
    id 31
    name head
    direction 0 0 0
    length 0
    axis 0 0 0 xyz
    dof rx ry rz
    limits( -inf , inf )
( -inf , inf )
( -inf , inf )

  end
:hierarchy
  begin
    root lfemurDummy rfemurDummy lowerbackDummy
    lfemurDummy lfemur
    lfemur ltibia
    ltibia lfoot
    lfoot ltoes
    rfemurDummy rfemur
    rfemur rtibia
    rtibia rfoot
    rfoot rtoes
    lowerbackDummy lowerback
    lowerback upperback
    upperback thorax
    thorax rclavicle lclavicle lowerneck
    rclavicle rhumerus
    rhumerus rradius
    rradius rwrist
    rwrist rthumb rhand
    rhand rfingers
    lclavicle lhumerus
    lhumerus lradius
    lradius lwrist
    lwrist lthumb lhand
    lhand lfingers
    lowerneck upperneck
    upperneck head
  end

:SAMPLES-PER-SECOND 30
:FULLY-SPECIFIED
:DEGREES
38
root  10.08253323 38.37888823 -12.04719994 -4.248849869 -48.62900162 4.078460217
lowerback  8.146140099 1.163709998 -2.599980116
upperback  2.535900116 1.279680014 -0.8469129801
thorax  -1.979910016 0.6237429976 0.4629400074
lowerneck  -1.841339946 5.877810001 -5.836269855
upperneck  24.90309906 6.606750011 7.964690208
head  7.407000065 3.174479961 4.021830082
lclavicle  0 -9.442270133e-015 7.951389973e-016
lhumerus  14.84420013 -7.043010235 64.98600006
lradius  2.746176305e-031 -2.219765695e-031 141.0509949
lwrist  -7.062250077e-031 -0 10.23120022
lhand  -1.496451383e-031 -27.76390076 20.11240005
lfingers  90 7.125020027 -90
lthumb  89.89689403 5.08795885 91.16245106
rclavicle  0 -9.442270133e-015 7.951389973e-016
rhumerus  19.3973999 9.571900368 -73.12139893
rradius  -2.899299168e-031 2.015665739e-031 145.1920013
rwrist  1.412450015e-030 1.765562519e-031 -20.36669922
rhand  -7.920061211e-032 -33.2840004 9.303460121
rfingers  -90 -7.125020027 -90
rthumb  -92.93752616 -24.25625642 -97.11982154
rfemur  -10.47739983 18.45459938 6.673210144
rtibia  -0 0 52.35380173
rfoot  -0 -26.87599945 -7.660260201
rtoes  5.373923086 19.29304026 -105.8922705
lfemur  -21.98600006 0.1630589962 -8.036919594
ltibia  -0 0 62.479599
lfoot  4.535998918e-032 -13.32369995 -0.2942489982
ltoes  -4.250644065 -19.5611806 -102.515957
39
root  10.05764458 38.1953322 -12.13317781 -4.272769928 -48.30609894 3.88132
lowerback  8.30480957 1.065610051 -2.727489948
upperback  2.493069887 1.135640025 -0.7463799715
thorax  -2.112339973 0.5538600087 0.6491190195
lowerneck  -2.222090006 5.738570213 -5.840419769
upperneck  25.82089996 6.46875 7.617889881
head  7.809309959 3.062839985 3.955800056
lclavicle  0 -9.442270133e-015 7.951389973e-016
lhumerus  13.9392004 -7.541240215 65.2990036
lradius  2.767893923e-031 -2.192625656e-031 141.6150055
lwrist  0 -1.765562519e-031 9.624569893
lhand  -1.496451383e-031 -27.76390076 20.11240005
lfingers  90 7.125020027 -90
lthumb  89.89689403 5.08795885 91.16245106
rclavicle  0 -9.442270133e-015 7.951389973e-016
rhumerus  18.95829964 9.868550301 -72.99099731
rradius  -2.904706119e-031 2.007866131e-031 145.345993
rwrist  7.062250077e-031 1.765562519e-031 -19.93720055
rhand  -7.920061211e-032 -33.2840004 9.303460121
rfingers  -90 -7.125020027 -90
rthumb  -92.93752616 -24.25625642 -97.11982154
rfemur  -10.23089981 17.75320053 6.835810184
rtibia  -0 0 52.56900024
rfoot  -0 -28.05330086 -7.29144001
rtoes  5.373923086 19.29304026 -105.8922705
lfemur  -21.94420052 0.4587559998 -7.962880135
ltibia  -0 0 62.96300125
lfoot  4.778970671e-032 -14.78180027 0.05797149986
ltoes  -4.250644065 -19.5611806 -102.515957
40
root  10.05037788 38.0453335 -12.21948909 -3.799910069 -47.99290085 3.121490002
lowerback  8.554309845 0.9346240163 -2.533200026
upperback  2.379379988 0.9772589803 -0.4662629962
thorax  -2.364729881 0.479016006 0.8405770063
lowerneck  -2.594510078 5.617740154 -5.937300205
upperneck  26.86389923 6.385250092 7.190169811
head  8.25522995 2.953449965 3.884459972
lclavicle  0 -9.442270133e-015 7.951389973e-016
lhumerus  12.8512001 -7.740210056 65.8986969
lradius  2.784081293e-031 -2.172034851e-031 142.0399933
lwrist  -1.412450015e-030 -1.765562519e-031 8.963580132
lhand  -1.496451383e-031 -27.76390076 20.11240005
lfingers  90 7.125020027 -90
lthumb  89.89689403 5.08795885 91.16245106
rclavicle  0 -9.442270133e-015 7.951389973e-016
rhumerus  18.35129929 10.31820011 -72.8707962
rradius  -2.909813485e-031 2.000457328e-031 145.4920044
rwrist  7.062250077e-031 8.827812596e-032 -19.54649925
rhand  -7.920061211e-032 -33.2840004 9.303460121
rfingers  -90 -7.125020027 -90
rthumb  -92.93752616 -24.25625642 -97.11982154
rfemur  -10.27760029 16.73749924 7.41079998
rtibia  -0 0 52.86119843
rfoot  -0 -28.81089973 -7.687679768
rtoes  5.373923086 19.29304026 -105.8922705
lfemur  -22.11879921 0.7602499723 -7.407209873
ltibia  -0 0 63.3728981
lfoot  4.591538431e-032 -15.98929977 0.3366290033
ltoes  -4.250644065 -19.5611806 -102.515957
41
root  10.06099971 37.90733458 -12.30797805 -3.254440069 -47.72169876 2.324429989
lowerback  8.846039772 0.8009030223 -2.356300116
upperback  2.248310089 0.8157910109 -0.1519680023
thorax  -2.658610106 0.4031229913 1.078690052
lowerneck  -2.865380049 5.497940063 -6.099490166
upperneck  27.87660027 6.310090065 6.772439957
head  8.676280022 2.835659981 3.820519924
lclavicle  0 -9.442270133e-015 7.951389973e-016
lhumerus  11.63589954 -7.673270226 66.67440033
lradius  2.793607976e-031 -2.159768162e-031 142.2920074
lwrist  -1.412450015e-030 -0 8.074700356
lhand  -1.496451383e-031 -27.76390076 20.11240005
lfingers  90 7.125020027 -90
lthumb  89.89689403 5.08795885 91.16245106
rclavicle  0 -9.442270133e-015 7.951389973e-016
rhumerus  17.61779976 10.86270046 -72.82209778
rradius  -2.914518679e-031 1.993595974e-031 145.6269989
rwrist  7.062250077e-031 -0 -19.21120071
rhand  -7.920061211e-032 -33.2840004 9.303460121
rfingers  -90 -7.125020027 -90
rthumb  -92.93752616 -24.25625642 -97.11982154
rfemur  -10.42980003 15.52460003 7.970449924
rtibia  -0 0 53.14400101
rfoot  -0 -29.54150009 -7.852680206
rtoes  5.373923086 19.29304026 -105.8922705
lfemur  -22.45730019 1.026049972 -6.75797987
ltibia  -0 0 63.83319855
lfoot  4.899339185e-032 -16.81850052 0.395096004
ltoes  -4.250644065 -19.5611806 -102.515957
